<svg xmlns="http://www.w3.org/2000/svg" width="920" height="468">
  <style>
    .label { font: 14px sans-serif; fill: #333; }
    .bar { rx: 4; ry: 4; }
    .legend-label { font: 13px sans-serif; fill: #333; }
    .title { font: bold 18px sans-serif; fill: #333; }
  </style>

  <text x="20" y="30" class="title">🧠 AlexAI Katra Lifecycle Sync Sequence</text>
  <text x="20" y="76" class="label">dev:predev</text>
  <rect class="bar" x="160" y="60" width="170" height="24" fill="#4db6ac" />
  <text x="168" y="77" class="label">pull_katras_runtime.sh</text>
  <text x="20" y="124" class="label">dev:dev</text>
  <rect class="bar" x="160" y="108" width="170" height="24" fill="#9575cd" />
  <text x="168" y="125" class="label">next dev</text>
  <text x="20" y="172" class="label">dev:prestart</text>
  <rect class="bar" x="160" y="156" width="170" height="24" fill="#4db6ac" />
  <text x="168" y="173" class="label">pull_katras_runtime.sh</text>
  <rect class="bar" x="340" y="156" width="170" height="24" fill="#81c784" />
  <text x="348" y="173" class="label">sync_katras_runtime.sh</text>
  <text x="20" y="220" class="label">build:prebuild</text>
  <rect class="bar" x="160" y="204" width="170" height="24" fill="#ffb74d" />
  <text x="168" y="221" class="label">migrate_katras.sh</text>
  <rect class="bar" x="340" y="204" width="170" height="24" fill="#4db6ac" />
  <text x="348" y="221" class="label">pull_katras_runtime.sh</text>
  <rect class="bar" x="520" y="204" width="170" height="24" fill="#81c784" />
  <text x="528" y="221" class="label">sync_katras_runtime.sh</text>
  <rect class="bar" x="700" y="204" width="170" height="24" fill="#64b5f6" />
  <text x="708" y="221" class="label">amplify-prebuild.sh</text>
  <text x="20" y="268" class="label">build:build</text>
  <rect class="bar" x="160" y="252" width="170" height="24" fill="#4db6ac" />
  <text x="168" y="269" class="label">pull_katras_runtime.sh</text>
  <rect class="bar" x="340" y="252" width="170" height="24" fill="#81c784" />
  <text x="348" y="269" class="label">sync_katras_runtime.sh</text>
  <rect class="bar" x="520" y="252" width="170" height="24" fill="#f06292" />
  <text x="528" y="269" class="label">next build</text>
  <text x="20" y="316" class="label">build:postbuild</text>
  <rect class="bar" x="160" y="300" width="170" height="24" fill="#ffb74d" />
  <text x="168" y="317" class="label">migrate_katras.sh</text>
  <rect class="bar" x="340" y="300" width="170" height="24" fill="#81c784" />
  <text x="348" y="317" class="label">sync_katras_runtime.sh</text>
  <text x="20" y="368" class="label">Legend</text>
  <rect x="20" y="388" width="18" height="18" fill="#4db6ac" rx="4" ry="4" />
  <text x="44" y="402" class="legend-label">pull_katras_runtime.sh</text>
  <rect x="20" y="416" width="18" height="18" fill="#81c784" rx="4" ry="4" />
  <text x="44" y="430" class="legend-label">sync_katras_runtime.sh</text>
  <rect x="20" y="444" width="18" height="18" fill="#ffb74d" rx="4" ry="4" />
  <text x="44" y="458" class="legend-label">migrate_katras.sh</text>
  <rect x="20" y="472" width="18" height="18" fill="#64b5f6" rx="4" ry="4" />
  <text x="44" y="486" class="legend-label">amplify-prebuild.sh</text>
  <rect x="20" y="500" width="18" height="18" fill="#9575cd" rx="4" ry="4" />
  <text x="44" y="514" class="legend-label">next dev</text>
  <rect x="20" y="528" width="18" height="18" fill="#f06292" rx="4" ry="4" />
  <text x="44" y="542" class="legend-label">next build</text>
</svg>